<svg width="24" height="19" viewBox="0 0 24 19" fill="none" xmlns="http://www.w3.org/2000/svg">
<path d="M19.3802 0.40692C18.9242 0.37092 18.4442 0.47892 18.0002 0.71892L7.62024 6.71892C6.46825 7.39092 6.08424 8.87892 6.74424 10.0069L8.54424 13.1149C9.20424 14.2789 10.6682 14.6629 11.8202 14.0029L13.9802 12.7549C14.3042 13.3069 14.7842 13.7509 15.3722 14.0029V16.1269C15.3722 17.4349 16.4402 18.4789 17.7722 18.4789H24.0002V16.1269H17.7722V14.0029C18.8642 13.5229 19.5722 12.4429 19.5722 11.2789C19.5722 10.7269 19.4282 10.2109 19.1642 9.75492L22.2002 8.00292C23.3642 7.33092 23.7602 5.87892 23.0882 4.71492L21.2882 1.60692C20.8802 0.88692 20.1482 0.47892 19.3802 0.40692ZM5.06424 10.2829L0.000244141 11.1229L0.900244 12.6829L3.30024 16.8349L4.20024 18.3949L7.46424 14.4349L5.06424 10.2829Z" fill="#367BF5"/>
</svg>
