<svg width="24" height="27" viewBox="0 0 24 27" fill="none" xmlns="http://www.w3.org/2000/svg">
<path d="M17.4002 17.6003H24.0002V19.4003H17.4002V21.5003L14.4002 18.5003L17.4002 15.5003V17.6003ZM21.0002 22.7003V20.6003L24.0002 23.6003L21.0002 26.6003V24.5003H14.4002V22.7003H21.0002ZM9.00024 5.60029C8.36372 5.60029 7.75328 5.34744 7.30319 4.89735C6.8531 4.44726 6.60024 3.83681 6.60024 3.20029C6.60024 2.56377 6.8531 1.95332 7.30319 1.50324C7.75328 1.05315 8.36372 0.800293 9.00024 0.800293C9.63676 0.800293 10.2472 1.05315 10.6973 1.50324C11.1474 1.95332 11.4002 2.56377 11.4002 3.20029C11.4002 3.83681 11.1474 4.44726 10.6973 4.89735C10.2472 5.34744 9.63676 5.60029 9.00024 5.60029ZM4.50024 9.68029L2.40024 10.5803V14.6003H0.000244141V8.96029L6.30024 6.38029C6.60024 6.26029 6.90024 6.20029 7.20024 6.20029C8.04024 6.20029 8.82024 6.62029 9.24024 7.34029L10.3802 9.26029C11.4602 11.0003 13.3802 12.2003 15.6002 12.2003V14.6003C12.9602 14.6003 10.6202 13.4003 9.06024 11.4803L8.34024 15.0803L10.8002 17.5403V26.6003H8.40024V19.4003L5.82024 17.0003L3.72024 26.6003H1.20024L4.50024 9.68029Z" fill="#367BF5"/>
</svg>
