<svg width="20" height="20" viewBox="0 0 20 20" fill="none" xmlns="http://www.w3.org/2000/svg">
<path d="M10.0002 7.22024C10.5307 7.22024 11.0394 7.43096 11.4145 7.80603C11.7895 8.1811 12.0002 8.68981 12.0002 9.22024C12.0002 9.75068 11.7895 10.2594 11.4145 10.6345C11.0394 11.0095 10.5307 11.2202 10.0002 11.2202C9.46981 11.2202 8.9611 11.0095 8.58603 10.6345C8.21096 10.2594 8.00024 9.75068 8.00024 9.22024C8.00024 8.68981 8.21096 8.1811 8.58603 7.80603C8.9611 7.43096 9.46981 7.22024 10.0002 7.22024ZM10.0002 19.2202C8.05024 19.2202 6.22024 18.6602 4.69024 17.6902L8.00024 12.6902C8.60024 13.0302 9.28024 13.2202 10.0002 13.2202C10.7202 13.2202 11.4002 13.0302 12.0002 12.6902L15.3102 17.6902C13.7802 18.6602 11.9502 19.2202 10.0002 19.2202ZM0.000244141 9.22024C0.000244141 5.08024 2.50024 1.52024 6.11024 0.000244112L8.34024 5.58024C6.96024 6.22024 6.00024 7.60024 6.00024 9.22024H0.000244141ZM14.0002 9.22024C14.0002 7.60024 13.0402 6.22024 11.6602 5.58024L13.8902 0.000244112C17.5002 1.52024 20.0002 5.08024 20.0002 9.22024H14.0002Z" fill="#367BF5"/>
</svg>
